<svg xmlns="http://www.w3.org/2000/svg" width="1920" height="1080"><path d="M2085,-210L1935,-210L2085,-60Z" fill="#753957" stroke="#753957" stroke-width="1.51"/><path d="M1935,-210L1935,-60L2085,-60Z" fill="#854461" stroke="#854461" stroke-width="1.51"/><path d="M2085,-60L1935,-60L2085,90Z" fill="#884e65" stroke="#884e65" stroke-width="1.51"/><path d="M1935,-60L1935,90L2085,90Z" fill="#925c73" stroke="#925c73" stroke-width="1.51"/><path d="M2085,90L1935,90L2085,240Z" fill="#93687b" stroke="#93687b" stroke-width="1.51"/><path d="M1935,90L1935,240L2085,240Z" fill="#9b798b" stroke="#9b798b" stroke-width="1.51"/><path d="M2085,240L1935,240L2085,390Z" fill="#978296" stroke="#978296" stroke-width="1.51"/><path d="M1935,240L1935,390L2085,390Z" fill="#9b91a9" stroke="#9b91a9" stroke-width="1.51"/><path d="M2085,390L1935,390L2085,540Z" fill="#9394b1" stroke="#9394b1" stroke-width="1.51"/><path d="M1935,390L1935,540L2085,540Z" fill="#959fc0" stroke="#959fc0" stroke-width="1.51"/><path d="M2085,540L1935,540L2085,690Z" fill="#899abd" stroke="#899abd" stroke-width="1.51"/><path d="M1935,540L1935,690L2085,690Z" fill="#879ec5" stroke="#879ec5" stroke-width="1.51"/><path d="M1935,990L2085,990L2085,840Z" fill="#497bac" stroke="#497bac" stroke-width="1.51"/><path d="M1935,840L1935,990L2085,840Z" fill="#5889b9" stroke="#5889b9" stroke-width="1.51"/><path d="M2085,690L1935,690L2085,840Z" fill="#7491b9" stroke="#7491b9" stroke-width="1.51"/><path d="M1935,690L1935,840L2085,840Z" fill="#6e93bf" stroke="#6e93bf" stroke-width="1.51"/><path d="M2085,990L1935,990L2085,1140Z" fill="#2d6ea4" stroke="#2d6ea4" stroke-width="1.51"/><path d="M1935,990L1935,1140L2085,1140Z" fill="#2a6da9" stroke="#2a6da9" stroke-width="1.51"/><path d="M2085,1140L1935,1140L2085,1290Z" fill="#1c5a9a" stroke="#1c5a9a" stroke-width="1.51"/><path d="M1935,1140L1935,1290L2085,1290Z" fill="#1a5798" stroke="#1a5798" stroke-width="1.51"/><path d="M1935,-210L1785,-210L1935,-60Z" fill="#834a69" stroke="#834a69" stroke-width="1.51"/><path d="M1785,-210L1785,-60L1935,-60Z" fill="#91556e" stroke="#91556e" stroke-width="1.51"/><path d="M1935,-60L1785,-60L1935,90Z" fill="#965f78" stroke="#965f78" stroke-width="1.51"/><path d="M1785,-60L1785,90L1935,90Z" fill="#9d6d80" stroke="#9d6d80" stroke-width="1.51"/><path d="M1935,90L1785,90L1935,240Z" fill="#a07a8e" stroke="#a07a8e" stroke-width="1.51"/><path d="M1785,90L1785,240L1935,240Z" fill="#a68999" stroke="#a68999" stroke-width="1.51"/><path d="M1935,540L1785,540L1935,690Z" fill="#94acd2" stroke="#94acd2" stroke-width="1.51"/><path d="M1785,540L1785,690L1935,690Z" fill="#91afd4" stroke="#91afd4" stroke-width="1.51"/><path d="M1785,990L1935,990L1935,840Z" fill="#528dc1" stroke="#528dc1" stroke-width="1.51"/><path d="M1785,840L1785,990L1935,840Z" fill="#619ac8" stroke="#619ac8" stroke-width="1.51"/><path d="M1935,690L1785,690L1935,840Z" fill="#7fa3ce" stroke="#7fa3ce" stroke-width="1.51"/><path d="M1785,690L1785,840L1935,840Z" fill="#77a4ce" stroke="#77a4ce" stroke-width="1.51"/><path d="M1935,240L1785,240L1935,390Z" fill="#a394ab" stroke="#a394ab" stroke-width="1.51"/><path d="M1785,240L1785,390L1935,390Z" fill="#a5a1b7" stroke="#a5a1b7" stroke-width="1.51"/><path d="M1785,540L1935,540L1935,390Z" fill="#9daacc" stroke="#9daacc" stroke-width="1.51"/><path d="M1785,390L1785,540L1935,390Z" fill="#a2acc8" stroke="#a2acc8" stroke-width="1.51"/><path d="M1935,990L1785,990L1935,1140Z" fill="#367fb9" stroke="#367fb9" stroke-width="1.51"/><path d="M1785,990L1785,1140L1935,1140Z" fill="#347db8" stroke="#347db8" stroke-width="1.51"/><path d="M1785,1290L1935,1290L1935,1140Z" fill="#2162a4" stroke="#2162a4" stroke-width="1.51"/><path d="M1785,1140L1785,1290L1935,1140Z" fill="#2a6fb1" stroke="#2a6fb1" stroke-width="1.51"/><path d="M1785,-210L1635,-210L1785,-60Z" fill="#8c596f" stroke="#8c596f" stroke-width="1.51"/><path d="M1635,-210L1635,-60L1785,-60Z" fill="#9a6475" stroke="#9a6475" stroke-width="1.51"/><path d="M1785,-60L1635,-60L1785,90Z" fill="#9f6e7e" stroke="#9f6e7e" stroke-width="1.51"/><path d="M1635,-60L1635,90L1785,90Z" fill="#a67b87" stroke="#a67b87" stroke-width="1.51"/><path d="M1785,90L1635,90L1785,240Z" fill="#a98995" stroke="#a98995" stroke-width="1.51"/><path d="M1635,90L1635,240L1785,240Z" fill="#ae98a0" stroke="#ae98a0" stroke-width="1.51"/><path d="M1635,1140L1785,1140L1785,990Z" fill="#3b86bc" stroke="#3b86bc" stroke-width="1.51"/><path d="M1635,990L1635,1140L1785,990Z" fill="#4292c2" stroke="#4292c2" stroke-width="1.51"/><path d="M1785,540L1635,540L1785,690Z" fill="#9cbbda" stroke="#9cbbda" stroke-width="1.51"/><path d="M1635,540L1635,690L1785,690Z" fill="#98bedb" stroke="#98bedb" stroke-width="1.51"/><path d="M1635,990L1785,990L1785,840Z" fill="#5a9bc9" stroke="#5a9bc9" stroke-width="1.51"/><path d="M1635,840L1635,990L1785,840Z" fill="#68a8cf" stroke="#68a8cf" stroke-width="1.51"/><path d="M1785,690L1635,690L1785,840Z" fill="#87b2d5" stroke="#87b2d5" stroke-width="1.51"/><path d="M1635,690L1635,840L1785,840Z" fill="#7fb2d5" stroke="#7fb2d5" stroke-width="1.51"/><path d="M1785,1140L1635,1140L1785,1290Z" fill="#3278b6" stroke="#3278b6" stroke-width="1.51"/><path d="M1635,1140L1635,1290L1785,1290Z" fill="#3074ae" stroke="#3074ae" stroke-width="1.51"/><path d="M1785,240L1635,240L1785,390Z" fill="#aca3b2" stroke="#aca3b2" stroke-width="1.51"/><path d="M1635,240L1635,390L1785,390Z" fill="#adb1be" stroke="#adb1be" stroke-width="1.51"/><path d="M1635,540L1785,540L1785,390Z" fill="#a5bad3" stroke="#a5bad3" stroke-width="1.51"/><path d="M1635,390L1635,540L1785,390Z" fill="#a9bbcf" stroke="#a9bbcf" stroke-width="1.51"/><path d="M1635,-210L1485,-210L1635,-60Z" fill="#9b6876" stroke="#9b6876" stroke-width="1.51"/><path d="M1485,-210L1485,-60L1635,-60Z" fill="#ac737c" stroke="#ac737c" stroke-width="1.51"/><path d="M1635,-60L1485,-60L1635,90Z" fill="#ae7d85" stroke="#ae7d85" stroke-width="1.51"/><path d="M1485,-60L1485,90L1635,90Z" fill="#b88b8e" stroke="#b88b8e" stroke-width="1.51"/><path d="M1635,90L1485,90L1635,240Z" fill="#b8999c" stroke="#b8999c" stroke-width="1.51"/><path d="M1485,90L1485,240L1635,240Z" fill="#c1a8a7" stroke="#c1a8a7" stroke-width="1.51"/><path d="M1635,240L1485,240L1635,390Z" fill="#bbb3b9" stroke="#bbb3b9" stroke-width="1.51"/><path d="M1485,240L1485,390L1635,390Z" fill="#c0c1c6" stroke="#c0c1c6" stroke-width="1.51"/><path d="M1635,390L1485,390L1635,540Z" fill="#b6c6d4" stroke="#b6c6d4" stroke-width="1.51"/><path d="M1485,390L1485,540L1635,540Z" fill="#bbcfde" stroke="#bbcfde" stroke-width="1.51"/><path d="M1635,540L1485,540L1635,690Z" fill="#accbe2" stroke="#accbe2" stroke-width="1.51"/><path d="M1485,540L1485,690L1635,690Z" fill="#adcee3" stroke="#adcee3" stroke-width="1.51"/><path d="M1635,690L1485,690L1635,840Z" fill="#97c2dd" stroke="#97c2dd" stroke-width="1.51"/><path d="M1485,690L1485,840L1635,840Z" fill="#94c2dd" stroke="#94c2dd" stroke-width="1.51"/><path d="M1635,840L1485,840L1635,990Z" fill="#78b2d5" stroke="#78b2d5" stroke-width="1.51"/><path d="M1485,840L1485,990L1635,990Z" fill="#75b0d3" stroke="#75b0d3" stroke-width="1.51"/><path d="M1635,990L1485,990L1635,1140Z" fill="#559cc8" stroke="#559cc8" stroke-width="1.51"/><path d="M1485,990L1485,1140L1635,1140Z" fill="#5a9ac7" stroke="#5a9ac7" stroke-width="1.51"/><path d="M1635,1140L1485,1140L1635,1290Z" fill="#4987be" stroke="#4987be" stroke-width="1.51"/><path d="M1485,1140L1485,1290L1635,1290Z" fill="#4e83b6" stroke="#4e83b6" stroke-width="1.51"/><path d="M1485,-210L1335,-210L1485,-60Z" fill="#ac777d" stroke="#ac777d" stroke-width="1.51"/><path d="M1335,-210L1335,-60L1485,-60Z" fill="#bd7f82" stroke="#bd7f82" stroke-width="1.51"/><path d="M1485,-60L1335,-60L1485,90Z" fill="#c08d8c" stroke="#c08d8c" stroke-width="1.51"/><path d="M1335,-60L1335,90L1485,90Z" fill="#ca9895" stroke="#ca9895" stroke-width="1.51"/><path d="M1485,90L1335,90L1485,240Z" fill="#caa8a4" stroke="#caa8a4" stroke-width="1.51"/><path d="M1335,90L1335,240L1485,240Z" fill="#d3b5ae" stroke="#d3b5ae" stroke-width="1.51"/><path d="M1335,1140L1485,1140L1485,990Z" fill="#6aa4cd" stroke="#6aa4cd" stroke-width="1.51"/><path d="M1335,990L1335,1140L1485,990Z" fill="#76aed2" stroke="#76aed2" stroke-width="1.51"/><path d="M1485,540L1335,540L1485,690Z" fill="#c1dcea" stroke="#c1dcea" stroke-width="1.51"/><path d="M1335,540L1335,690L1485,690Z" fill="#c1dceb" stroke="#c1dceb" stroke-width="1.51"/><path d="M1335,990L1485,990L1485,840Z" fill="#83bad9" stroke="#83bad9" stroke-width="1.51"/><path d="M1335,840L1335,990L1485,840Z" fill="#95c5df" stroke="#95c5df" stroke-width="1.51"/><path d="M1485,690L1335,690L1485,840Z" fill="#acd2e5" stroke="#acd2e5" stroke-width="1.51"/><path d="M1335,690L1335,840L1485,840Z" fill="#a9d0e4" stroke="#a9d0e4" stroke-width="1.51"/><path d="M1485,1140L1335,1140L1485,1290Z" fill="#6396c6" stroke="#6396c6" stroke-width="1.51"/><path d="M1335,1140L1335,1290L1485,1290Z" fill="#6690bd" stroke="#6690bd" stroke-width="1.51"/><path d="M1485,240L1335,240L1485,390Z" fill="#cec3c1" stroke="#cec3c1" stroke-width="1.51"/><path d="M1335,240L1335,390L1485,390Z" fill="#d3cecd" stroke="#d3cecd" stroke-width="1.51"/><path d="M1335,540L1485,540L1485,390Z" fill="#c8dae3" stroke="#c8dae3" stroke-width="1.51"/><path d="M1335,390L1335,540L1485,390Z" fill="#d0d9de" stroke="#d0d9de" stroke-width="1.51"/><path d="M1335,-210L1185,-210L1335,-60Z" fill="#bc8083" stroke="#bc8083" stroke-width="1.51"/><path d="M1185,-210L1185,-60L1335,-60Z" fill="#cd8887" stroke="#cd8887" stroke-width="1.51"/><path d="M1335,-60L1185,-60L1335,90Z" fill="#d09692" stroke="#d09692" stroke-width="1.51"/><path d="M1185,-60L1185,90L1335,90Z" fill="#daa199" stroke="#daa199" stroke-width="1.51"/><path d="M1335,90L1185,90L1335,240Z" fill="#dbb2a9" stroke="#dbb2a9" stroke-width="1.51"/><path d="M1185,90L1185,240L1335,240Z" fill="#e3bfb3" stroke="#e3bfb3" stroke-width="1.51"/><path d="M1335,240L1185,240L1335,390Z" fill="#dfcdc6" stroke="#dfcdc6" stroke-width="1.51"/><path d="M1185,240L1185,390L1335,390Z" fill="#e5d8d2" stroke="#e5d8d2" stroke-width="1.51"/><path d="M1335,390L1185,390L1335,540Z" fill="#dde0e2" stroke="#dde0e2" stroke-width="1.51"/><path d="M1185,390L1185,540L1335,540Z" fill="#e1e7eb" stroke="#e1e7eb" stroke-width="1.51"/><path d="M1335,540L1185,540L1335,690Z" fill="#d4e6f0" stroke="#d4e6f0" stroke-width="1.51"/><path d="M1185,540L1185,690L1335,690Z" fill="#d4e6f0" stroke="#d4e6f0" stroke-width="1.51"/><path d="M1335,690L1185,690L1335,840Z" fill="#c0dceb" stroke="#c0dceb" stroke-width="1.51"/><path d="M1185,690L1185,840L1335,840Z" fill="#bddaea" stroke="#bddaea" stroke-width="1.51"/><path d="M1335,840L1185,840L1335,990Z" fill="#a3cce3" stroke="#a3cce3" stroke-width="1.51"/><path d="M1185,840L1185,990L1335,990Z" fill="#9fc7e0" stroke="#9fc7e0" stroke-width="1.51"/><path d="M1335,990L1185,990L1335,1140Z" fill="#84b5d6" stroke="#84b5d6" stroke-width="1.51"/><path d="M1185,990L1185,1140L1335,1140Z" fill="#87b1d4" stroke="#87b1d4" stroke-width="1.51"/><path d="M1335,1140L1185,1140L1335,1290Z" fill="#799fcc" stroke="#799fcc" stroke-width="1.51"/><path d="M1185,1140L1185,1290L1335,1290Z" fill="#7b99c3" stroke="#7b99c3" stroke-width="1.51"/><path d="M1185,-210L1035,-210L1185,-60Z" fill="#c98786" stroke="#c98786" stroke-width="1.51"/><path d="M1035,-210L1035,-60L1185,-60Z" fill="#d88e8a" stroke="#d88e8a" stroke-width="1.51"/><path d="M1185,-60L1035,-60L1185,90Z" fill="#de9d95" stroke="#de9d95" stroke-width="1.51"/><path d="M1035,-60L1035,90L1185,90Z" fill="#e5a79c" stroke="#e5a79c" stroke-width="1.51"/><path d="M1185,90L1035,90L1185,240Z" fill="#e9b9ad" stroke="#e9b9ad" stroke-width="1.51"/><path d="M1035,90L1035,240L1185,240Z" fill="#efc6b6" stroke="#efc6b6" stroke-width="1.51"/><path d="M1185,240L1035,240L1185,390Z" fill="#eed5ca" stroke="#eed5ca" stroke-width="1.51"/><path d="M1035,240L1035,390L1185,390Z" fill="#f1dfd5" stroke="#f1dfd5" stroke-width="1.51"/><path d="M1185,690L1035,690L1185,840Z" fill="#d0e4ef" stroke="#d0e4ef" stroke-width="1.51"/><path d="M1035,690L1035,840L1185,840Z" fill="#cae1ed" stroke="#cae1ed" stroke-width="1.51"/><path d="M1035,1140L1185,1140L1185,990Z" fill="#92b5d7" stroke="#92b5d7" stroke-width="1.51"/><path d="M1035,990L1035,1140L1185,990Z" fill="#9abfdb" stroke="#9abfdb" stroke-width="1.51"/><path d="M1185,840L1035,840L1185,990Z" fill="#b3d4e7" stroke="#b3d4e7" stroke-width="1.51"/><path d="M1035,840L1035,990L1185,990Z" fill="#adcee3" stroke="#adcee3" stroke-width="1.51"/><path d="M1185,1140L1035,1140L1185,1290Z" fill="#8aa7d0" stroke="#8aa7d0" stroke-width="1.51"/><path d="M1035,1140L1035,1290L1185,1290Z" fill="#899fc6" stroke="#899fc6" stroke-width="1.51"/><path d="M1185,390L1035,390L1185,540Z" fill="#ece8e6" stroke="#ece8e6" stroke-width="1.51"/><path d="M1035,390L1035,540L1185,540Z" fill="#eeeeee" stroke="#eeeeee" stroke-width="1.51"/><path d="M1035,690L1185,690L1185,540Z" fill="#deebf3" stroke="#deebf3" stroke-width="1.51"/><path d="M1035,540L1035,690L1185,540Z" fill="#e8f0f4" stroke="#e8f0f4" stroke-width="1.51"/><path d="M1035,-60L885,-60L1035,90Z" fill="#e8a297" stroke="#e8a297" stroke-width="1.51"/><path d="M885,-60L885,90L1035,90Z" fill="#eeaa9b" stroke="#eeaa9b" stroke-width="1.51"/><path d="M1035,90L885,90L1035,240Z" fill="#f3beae" stroke="#f3beae" stroke-width="1.51"/><path d="M885,90L885,240L1035,240Z" fill="#f9c8b5" stroke="#f9c8b5" stroke-width="1.51"/><path d="M1035,240L885,240L1035,390Z" fill="#f9dacc" stroke="#f9dacc" stroke-width="1.51"/><path d="M885,240L885,390L1035,390Z" fill="#fbe2d5" stroke="#fbe2d5" stroke-width="1.51"/><path d="M1035,390L885,390L1035,540Z" fill="#f7ede8" stroke="#f7ede8" stroke-width="1.51"/><path d="M885,390L885,540L1035,540Z" fill="#f9f1ed" stroke="#f9f1ed" stroke-width="1.51"/><path d="M1035,540L885,540L1035,690Z" fill="#f0f3f6" stroke="#f0f3f6" stroke-width="1.51"/><path d="M885,540L885,690L1035,690Z" fill="#ecf0f3" stroke="#ecf0f3" stroke-width="1.51"/><path d="M1035,690L885,690L1035,840Z" fill="#dce9f1" stroke="#dce9f1" stroke-width="1.51"/><path d="M885,690L885,840L1035,840Z" fill="#d5e4ed" stroke="#d5e4ed" stroke-width="1.51"/><path d="M1035,840L885,840L1035,990Z" fill="#c0dae9" stroke="#c0dae9" stroke-width="1.51"/><path d="M885,840L885,990L1035,990Z" fill="#b9d1e3" stroke="#b9d1e3" stroke-width="1.51"/><path d="M1035,990L885,990L1035,1140Z" fill="#a2c2dc" stroke="#a2c2dc" stroke-width="1.51"/><path d="M885,990L885,1140L1035,1140Z" fill="#a2bad7" stroke="#a2bad7" stroke-width="1.51"/><path d="M1035,1140L885,1140L1035,1290Z" fill="#97acd2" stroke="#97acd2" stroke-width="1.51"/><path d="M885,1140L885,1290L1035,1290Z" fill="#94a2c5" stroke="#94a2c5" stroke-width="1.51"/><path d="M885,-60L1035,-60L1035,-210Z" fill="#df918b" stroke="#df918b" stroke-width="1.51"/><path d="M885,-210L885,-60L1035,-210Z" fill="#d58b86" stroke="#d58b86" stroke-width="1.51"/><path d="M735,1140L885,1140L885,990Z" fill="#a5b5cd" stroke="#a5b5cd" stroke-width="1.51"/><path d="M735,990L735,1140L885,990Z" fill="#aabacc" stroke="#aabacc" stroke-width="1.51"/><path d="M885,-210L735,-210L885,-60Z" fill="#d4857d" stroke="#d4857d" stroke-width="1.51"/><path d="M735,-210L735,-60L885,-60Z" fill="#df887b" stroke="#df887b" stroke-width="1.51"/><path d="M885,-60L735,-60L885,90Z" fill="#e99b8c" stroke="#e99b8c" stroke-width="1.51"/><path d="M735,-60L735,90L885,90Z" fill="#eda18d" stroke="#eda18d" stroke-width="1.51"/><path d="M735,990L885,990L885,840Z" fill="#bccbd9" stroke="#bccbd9" stroke-width="1.51"/><path d="M735,840L735,990L885,840Z" fill="#c7d1d8" stroke="#c7d1d8" stroke-width="1.51"/><path d="M885,390L735,390L885,540Z" fill="#fbe7dc" stroke="#fbe7dc" stroke-width="1.51"/><path d="M735,390L735,540L885,540Z" fill="#fbe8de" stroke="#fbe8de" stroke-width="1.51"/><path d="M735,840L885,840L885,690Z" fill="#d8dee3" stroke="#d8dee3" stroke-width="1.51"/><path d="M735,690L735,840L885,690Z" fill="#e2e1e0" stroke="#e2e1e0" stroke-width="1.51"/><path d="M885,540L735,540L885,690Z" fill="#f4ede9" stroke="#f4ede9" stroke-width="1.51"/><path d="M735,540L735,690L885,690Z" fill="#efe8e3" stroke="#efe8e3" stroke-width="1.51"/><path d="M885,1140L735,1140L885,1290Z" fill="#9da6c6" stroke="#9da6c6" stroke-width="1.51"/><path d="M735,1140L735,1290L885,1290Z" fill="#999ab7" stroke="#999ab7" stroke-width="1.51"/><path d="M885,90L735,90L885,240Z" fill="#f5b8a3" stroke="#f5b8a3" stroke-width="1.51"/><path d="M735,90L735,240L885,240Z" fill="#f9c0a7" stroke="#f9c0a7" stroke-width="1.51"/><path d="M735,390L885,390L885,240Z" fill="#fcdccb" stroke="#fcdccb" stroke-width="1.51"/><path d="M735,240L735,390L885,240Z" fill="#fcd1bb" stroke="#fcd1bb" stroke-width="1.51"/><path d="M735,-210L585,-210L735,-60Z" fill="#d27a6e" stroke="#d27a6e" stroke-width="1.51"/><path d="M585,-210L585,-60L735,-60Z" fill="#dc7b6a" stroke="#dc7b6a" stroke-width="1.51"/><path d="M735,-60L585,-60L735,90Z" fill="#e7917c" stroke="#e7917c" stroke-width="1.51"/><path d="M585,-60L585,90L735,90Z" fill="#eb947b" stroke="#eb947b" stroke-width="1.51"/><path d="M735,90L585,90L735,240Z" fill="#f4ae93" stroke="#f4ae93" stroke-width="1.51"/><path d="M585,90L585,240L735,240Z" fill="#f7b394" stroke="#f7b394" stroke-width="1.51"/><path d="M735,240L585,240L735,390Z" fill="#fbc9b0" stroke="#fbc9b0" stroke-width="1.51"/><path d="M585,240L585,390L735,390Z" fill="#fcccb3" stroke="#fcccb3" stroke-width="1.51"/><path d="M735,390L585,390L735,540Z" fill="#fcdccb" stroke="#fcdccb" stroke-width="1.51"/><path d="M585,390L585,540L735,540Z" fill="#fbdbcb" stroke="#fbdbcb" stroke-width="1.51"/><path d="M735,540L585,540L735,690Z" fill="#f5e2d9" stroke="#f5e2d9" stroke-width="1.51"/><path d="M585,540L585,690L735,690Z" fill="#f0dad0" stroke="#f0dad0" stroke-width="1.51"/><path d="M735,690L585,690L735,840Z" fill="#e3d9d4" stroke="#e3d9d4" stroke-width="1.51"/><path d="M585,690L585,840L735,840Z" fill="#dacecb" stroke="#dacecb" stroke-width="1.51"/><path d="M735,840L585,840L735,990Z" fill="#c8c9cc" stroke="#c8c9cc" stroke-width="1.51"/><path d="M585,840L585,990L735,990Z" fill="#c0bcc1" stroke="#c0bcc1" stroke-width="1.51"/><path d="M585,1290L735,1290L735,1140Z" fill="#9b92ac" stroke="#9b92ac" stroke-width="1.51"/><path d="M585,1140L585,1290L735,1140Z" fill="#a297af" stroke="#a297af" stroke-width="1.51"/><path d="M735,990L585,990L735,1140Z" fill="#adb2c0" stroke="#adb2c0" stroke-width="1.51"/><path d="M585,990L585,1140L735,1140Z" fill="#aaa5b6" stroke="#aaa5b6" stroke-width="1.51"/><path d="M585,-210L435,-210L585,-60Z" fill="#cd695a" stroke="#cd695a" stroke-width="1.51"/><path d="M435,-210L435,-60L585,-60Z" fill="#d66956" stroke="#d66956" stroke-width="1.51"/><path d="M585,-60L435,-60L585,90Z" fill="#e28068" stroke="#e28068" stroke-width="1.51"/><path d="M435,-60L435,90L585,90Z" fill="#e58367" stroke="#e58367" stroke-width="1.51"/><path d="M585,390L435,390L585,540Z" fill="#fbcbb5" stroke="#fbcbb5" stroke-width="1.51"/><path d="M435,390L435,540L585,540Z" fill="#f9cab5" stroke="#f9cab5" stroke-width="1.51"/><path d="M585,540L435,540L585,690Z" fill="#f5d1c2" stroke="#f5d1c2" stroke-width="1.51"/><path d="M435,540L435,690L585,690Z" fill="#efc9ba" stroke="#efc9ba" stroke-width="1.51"/><path d="M435,990L585,990L585,840Z" fill="#c0b1b2" stroke="#c0b1b2" stroke-width="1.51"/><path d="M435,840L435,990L585,840Z" fill="#c9b3af" stroke="#c9b3af" stroke-width="1.51"/><path d="M585,690L435,690L585,840Z" fill="#e3c8be" stroke="#e3c8be" stroke-width="1.51"/><path d="M435,690L435,840L585,840Z" fill="#dabeb5" stroke="#dabeb5" stroke-width="1.51"/><path d="M435,1290L585,1290L585,1140Z" fill="#9c8397" stroke="#9c8397" stroke-width="1.51"/><path d="M435,1140L435,1290L585,1140Z" fill="#a3869a" stroke="#a3869a" stroke-width="1.51"/><path d="M585,990L435,990L585,1140Z" fill="#afa2aa" stroke="#afa2aa" stroke-width="1.51"/><path d="M435,990L435,1140L585,1140Z" fill="#ab95a0" stroke="#ab95a0" stroke-width="1.51"/><path d="M585,90L435,90L585,240Z" fill="#f09d7e" stroke="#f09d7e" stroke-width="1.51"/><path d="M435,90L435,240L585,240Z" fill="#f3a27f" stroke="#f3a27f" stroke-width="1.51"/><path d="M435,390L585,390L585,240Z" fill="#fac0a4" stroke="#fac0a4" stroke-width="1.51"/><path d="M435,240L435,390L585,240Z" fill="#f7b293" stroke="#f7b293" stroke-width="1.51"/><path d="M435,-60L285,-60L435,90Z" fill="#da6c56" stroke="#da6c56" stroke-width="1.51"/><path d="M285,-60L285,90L435,90Z" fill="#dc6d56" stroke="#dc6d56" stroke-width="1.51"/><path d="M435,90L285,90L435,240Z" fill="#e9896b" stroke="#e9896b" stroke-width="1.51"/><path d="M285,90L285,240L435,240Z" fill="#ea8d6e" stroke="#ea8d6e" stroke-width="1.51"/><path d="M435,240L285,240L435,390Z" fill="#f2a587" stroke="#f2a587" stroke-width="1.51"/><path d="M285,240L285,390L435,390Z" fill="#f1a68b" stroke="#f1a68b" stroke-width="1.51"/><path d="M285,-60L435,-60L435,-210Z" fill="#d05a4b" stroke="#d05a4b" stroke-width="1.51"/><path d="M285,-210L285,-60L435,-210Z" fill="#c14d43" stroke="#c14d43" stroke-width="1.51"/><path d="M435,690L285,690L435,840Z" fill="#dfb5ab" stroke="#dfb5ab" stroke-width="1.51"/><path d="M285,690L285,840L435,840Z" fill="#d5a9a2" stroke="#d5a9a2" stroke-width="1.51"/><path d="M435,840L285,840L435,990Z" fill="#c6a6a3" stroke="#c6a6a3" stroke-width="1.51"/><path d="M285,840L285,990L435,990Z" fill="#bb9799" stroke="#bb9799" stroke-width="1.51"/><path d="M285,1290L435,1290L435,1140Z" fill="#997084" stroke="#997084" stroke-width="1.51"/><path d="M285,1140L285,1290L435,1140Z" fill="#9e7388" stroke="#9e7388" stroke-width="1.51"/><path d="M435,990L285,990L435,1140Z" fill="#ac8f97" stroke="#ac8f97" stroke-width="1.51"/><path d="M285,990L285,1140L435,1140Z" fill="#a6828f" stroke="#a6828f" stroke-width="1.51"/><path d="M435,390L285,390L435,540Z" fill="#f5b8a2" stroke="#f5b8a2" stroke-width="1.51"/><path d="M285,390L285,540L435,540Z" fill="#f3b5a2" stroke="#f3b5a2" stroke-width="1.51"/><path d="M285,690L435,690L435,540Z" fill="#ebbbae" stroke="#ebbbae" stroke-width="1.51"/><path d="M285,540L285,690L435,540Z" fill="#eeb7a9" stroke="#eeb7a9" stroke-width="1.51"/><path d="M285,-210L135,-210L285,-60Z" fill="#ba3d39" stroke="#ba3d39" stroke-width="1.51"/><path d="M135,-210L135,-60L285,-60Z" fill="#c13b39" stroke="#c13b39" stroke-width="1.51"/><path d="M285,-60L135,-60L285,90Z" fill="#d05646" stroke="#d05646" stroke-width="1.51"/><path d="M135,-60L135,90L285,90Z" fill="#d25848" stroke="#d25848" stroke-width="1.51"/><path d="M285,90L135,90L285,240Z" fill="#df745b" stroke="#df745b" stroke-width="1.51"/><path d="M135,90L135,240L285,240Z" fill="#e0785f" stroke="#e0785f" stroke-width="1.51"/><path d="M135,1140L285,1140L285,990Z" fill="#a27583" stroke="#a27583" stroke-width="1.51"/><path d="M135,990L135,1140L285,990Z" fill="#a37682" stroke="#a37682" stroke-width="1.51"/><path d="M285,540L135,540L285,690Z" fill="#e9a99d" stroke="#e9a99d" stroke-width="1.51"/><path d="M135,540L135,690L285,690Z" fill="#e1a198" stroke="#e1a198" stroke-width="1.51"/><path d="M135,990L285,990L285,840Z" fill="#b78a8e" stroke="#b78a8e" stroke-width="1.51"/><path d="M135,840L135,990L285,840Z" fill="#bd8c8d" stroke="#bd8c8d" stroke-width="1.51"/><path d="M285,690L135,690L285,840Z" fill="#d8a099" stroke="#d8a099" stroke-width="1.51"/><path d="M135,690L135,840L285,840Z" fill="#cd9693" stroke="#cd9693" stroke-width="1.51"/><path d="M285,1140L135,1140L285,1290Z" fill="#99667d" stroke="#99667d" stroke-width="1.51"/><path d="M135,1140L135,1290L285,1290Z" fill="#905770" stroke="#905770" stroke-width="1.51"/><path d="M285,240L135,240L285,390Z" fill="#e99076" stroke="#e99076" stroke-width="1.51"/><path d="M135,240L135,390L285,390Z" fill="#e9927c" stroke="#e9927c" stroke-width="1.51"/><path d="M135,540L285,540L285,390Z" fill="#eea797" stroke="#eea797" stroke-width="1.51"/><path d="M135,390L135,540L285,390Z" fill="#ea9d8c" stroke="#ea9d8c" stroke-width="1.51"/><path d="M135,-210L-15,-210L135,-60Z" fill="#af262f" stroke="#af262f" stroke-width="1.51"/><path d="M-15,-210L-15,-60L135,-60Z" fill="#b6232e" stroke="#b6232e" stroke-width="1.51"/><path d="M135,-60L-15,-60L135,90Z" fill="#c5423c" stroke="#c5423c" stroke-width="1.51"/><path d="M-15,-60L-15,90L135,90Z" fill="#c6453e" stroke="#c6453e" stroke-width="1.51"/><path d="M135,90L-15,90L135,240Z" fill="#d46250" stroke="#d46250" stroke-width="1.51"/><path d="M-15,90L-15,240L135,240Z" fill="#d66754" stroke="#d66754" stroke-width="1.51"/><path d="M135,240L-15,240L135,390Z" fill="#e07e6b" stroke="#e07e6b" stroke-width="1.51"/><path d="M-15,240L-15,390L135,390Z" fill="#de8170" stroke="#de8170" stroke-width="1.51"/><path d="M135,390L-15,390L135,540Z" fill="#e49284" stroke="#e49284" stroke-width="1.51"/><path d="M-15,390L-15,540L135,540Z" fill="#e19086" stroke="#e19086" stroke-width="1.51"/><path d="M135,540L-15,540L135,690Z" fill="#e09891" stroke="#e09891" stroke-width="1.51"/><path d="M-15,540L-15,690L135,690Z" fill="#d8908c" stroke="#d8908c" stroke-width="1.51"/><path d="M135,690L-15,690L135,840Z" fill="#cf8f8d" stroke="#cf8f8d" stroke-width="1.51"/><path d="M-15,690L-15,840L135,840Z" fill="#c48586" stroke="#c48586" stroke-width="1.51"/><path d="M135,840L-15,840L135,990Z" fill="#b88185" stroke="#b88185" stroke-width="1.51"/><path d="M-15,840L-15,990L135,990Z" fill="#ac747e" stroke="#ac747e" stroke-width="1.51"/><path d="M135,990L-15,990L135,1140Z" fill="#9e6b7a" stroke="#9e6b7a" stroke-width="1.51"/><path d="M-15,990L-15,1140L135,1140Z" fill="#965f73" stroke="#965f73" stroke-width="1.51"/><path d="M135,1140L-15,1140L135,1290Z" fill="#915571" stroke="#915571" stroke-width="1.51"/><path d="M-15,1140L-15,1290L135,1290Z" fill="#874764" stroke="#874764" stroke-width="1.51"/><path d="M-15,-210L-165,-210L-15,-60Z" fill="#9e1228" stroke="#9e1228" stroke-width="1.51"/><path d="M-165,-210L-165,-60L-15,-60Z" fill="#a01529" stroke="#a01529" stroke-width="1.51"/><path d="M-15,-60L-165,-60L-15,90Z" fill="#b33234" stroke="#b33234" stroke-width="1.51"/><path d="M-165,-60L-165,90L-15,90Z" fill="#b13a38" stroke="#b13a38" stroke-width="1.51"/><path d="M-15,90L-165,90L-15,240Z" fill="#c35348" stroke="#c35348" stroke-width="1.51"/><path d="M-165,90L-165,240L-15,240Z" fill="#c05b4e" stroke="#c05b4e" stroke-width="1.51"/><path d="M-15,240L-165,240L-15,390Z" fill="#cf7062" stroke="#cf7062" stroke-width="1.51"/><path d="M-165,240L-165,390L-15,390Z" fill="#c8756a" stroke="#c8756a" stroke-width="1.51"/><path d="M-15,690L-165,690L-15,840Z" fill="#bf8183" stroke="#bf8183" stroke-width="1.51"/><path d="M-165,690L-165,840L-15,840Z" fill="#ae797f" stroke="#ae797f" stroke-width="1.51"/><path d="M-165,1140L-15,1140L-15,990Z" fill="#8a576e" stroke="#8a576e" stroke-width="1.51"/><path d="M-165,990L-165,1140L-15,990Z" fill="#855b6f" stroke="#855b6f" stroke-width="1.51"/><path d="M-15,840L-165,840L-15,990Z" fill="#a7737c" stroke="#a7737c" stroke-width="1.51"/><path d="M-165,840L-165,990L-15,990Z" fill="#966876" stroke="#966876" stroke-width="1.51"/><path d="M-15,1140L-165,1140L-15,1290Z" fill="#814868" stroke="#814868" stroke-width="1.51"/><path d="M-165,1140L-165,1290L-15,1290Z" fill="#723c5d" stroke="#723c5d" stroke-width="1.51"/><path d="M-15,390L-165,390L-15,540Z" fill="#d3837b" stroke="#d3837b" stroke-width="1.51"/><path d="M-165,390L-165,540L-15,540Z" fill="#ca847f" stroke="#ca847f" stroke-width="1.51"/><path d="M-165,690L-15,690L-15,540Z" fill="#ca8786" stroke="#ca8786" stroke-width="1.51"/><path d="M-165,540L-165,690L-15,540Z" fill="#c68685" stroke="#c68685" stroke-width="1.51"/></svg>