<svg x="0px" y="0px" viewBox="0 0 695 657">
<style type="text/css">
	.st0{fill:#DADADA;stroke:#000000;stroke-miterlimit:10;}
	.st1{fill:#E2E2E2;stroke:#000000;stroke-miterlimit:10;}
	.st2{fill:#E3E3E3;stroke:#000000;stroke-miterlimit:10;}
	.st3{fill:#EDEDED;stroke:#000000;stroke-miterlimit:10;}
	.st4{fill:#D4D4D4;stroke:#000000;stroke-miterlimit:10;}
	.st5{fill:#C4C4C4;stroke:#000000;stroke-miterlimit:10;}
	.st6{fill:#ACACAC;stroke:#000000;stroke-miterlimit:10;}
	.st7{fill:#D5D5D5;stroke:#000000;stroke-miterlimit:10;}
	.st8{fill:#CFCFCF;stroke:#000000;stroke-miterlimit:10;}
	.st9{fill:#E9E9E9;stroke:#000000;stroke-miterlimit:10;}
	.st10{fill:#A1A1A1;stroke:#000000;stroke-miterlimit:10;}
	.st11{fill:#A8A8A8;stroke:#000000;stroke-miterlimit:10;}
	.st12{fill:#DEDEDE;stroke:#000000;stroke-miterlimit:10;}
	.st13{fill:#B8B8B8;stroke:#000000;stroke-miterlimit:10;}
	.st14{fill:#DBDBDB;stroke:#000000;stroke-miterlimit:10;}
	.st15{fill:#C3C3C3;stroke:#000000;stroke-miterlimit:10;}
	.st16{fill:#B2B2B2;stroke:#000000;stroke-miterlimit:10;}
	.st17{fill:#C1C1C1;stroke:#000000;stroke-miterlimit:10;}
	.st18{fill:#DCDCDC;stroke:#000000;stroke-miterlimit:10;}
	.st19{fill:#C7C7C7;stroke:#000000;stroke-miterlimit:10;}
	.st20{fill:#A5A5A5;stroke:#000000;stroke-miterlimit:10;}
</style>
<g id="head">
	<path id="XMLID_96_" class="st0" stroke-linejoin="round" d="M491.7,216.2c0,1.5,36.2,72.8,36.2,72.8l-124.2-52.8L491.7,216.2z"/>
	<polygon id="XMLID_94_" class="st1" stroke-linejoin="round" points="510,494.2 414.2,434.2 472.2,329.4 	"/>
	<polygon id="XMLID_93_" class="st2" stroke-linejoin="round" points="414.2,434.2 341.7,418.7 380.2,334.2 	"/>
	<polygon id="XMLID_92_" class="st3" stroke-linejoin="round" points="414.2,434.2 472.2,329.4 380.2,334.2 	"/>
	<polygon id="XMLID_91_" class="st3" stroke-linejoin="round" points="380.2,334.2 403.7,236.2 472.2,329.4 	"/>
	<polygon id="XMLID_90_" class="st3" stroke-linejoin="round" points="403.7,236.2 460.5,120.2 491.7,216.2 	"/>
	<polygon id="XMLID_89_" class="st3" stroke-linejoin="round" points="491.7,216.2 501.5,158 460.5,120.2 	"/>
	<polygon id="XMLID_87_" class="st3" stroke-linejoin="round" points="460.5,120.2 351.2,167.2 403.7,236.2 	"/>
	<path id="XMLID_86_" class="st3" stroke-linejoin="round" d="M600.7,387.7"/>
	<polygon id="XMLID_84_" class="st4" stroke-linejoin="round" points="630.7,442.7 633.7,472.7 655.2,474.7 655.2,446.2 	"/>
	<polygon id="XMLID_83_" class="st5" stroke-linejoin="round" points="633.7,472.7 592.8,513.4 618.2,532.7 655.2,474.7 	"/>
	<polygon id="XMLID_82_" class="st6" stroke-linejoin="round" points="592.8,513.4 534.7,532.7 561.2,539.7 618.2,532.7 	"/>
	<polygon id="XMLID_81_" class="st7" stroke-linejoin="round" points="592.8,513.4 534.7,532.7 510,494.2 	"/>
	<polygon id="XMLID_80_" class="st3" stroke-linejoin="round" points="472.2,329.4 630.7,442.7 527.9,289 	"/>
	<polygon id="XMLID_79_" class="st8" stroke-linejoin="round" points="341.7,418.7 290.7,326.7 380.2,334.2 	"/>
	<polygon id="XMLID_78_" class="st9" stroke-linejoin="round" points="290.7,326.7 351.2,167.2 403.7,236.2 380.2,334.2 	"/>
	<polygon id="XMLID_77_" class="st3" stroke-linejoin="round" points="497.2,144.7 478.8,124.7 460.5,120.2 	"/>
	<polygon id="XMLID_76_" class="st10" stroke-linejoin="round" points="478.8,124.7 478.8,124.7 510,49.2 460.5,105.8 	"/>
	<polygon id="XMLID_75_" class="st11" stroke-linejoin="round" points="447.7,99.8 447.7,27.2 411.2,108.5 	"/>
	<polygon id="XMLID_74_" class="st3" stroke-linejoin="round" points="411.2,108.5 392.2,94.9 447.7,27.2 	"/>
	<polygon id="XMLID_73_" class="st3" stroke-linejoin="round" points="447.7,99.8 510,49.2 460.5,105.8 	"/>
	<polygon id="XMLID_72_" class="st1" stroke-linejoin="round" points="392.2,94.9 351.2,167.2 411.2,108.5 	"/>
	<path id="XMLID_71_" class="st3" stroke-linejoin="round" d="M392.2,94.9c-2.6,2.6-157.7,63.6-157.7,63.6l116.7,8.7L392.2,94.9z"/>
	<polygon id="XMLID_70_" class="st3" stroke-linejoin="round" points="234.5,158.5 125.9,285.2 351.2,167.2 	"/>
	<polygon id="XMLID_69_" class="st12" stroke-linejoin="round" points="125.9,285.2 290.7,326.7 351.2,167.2 	"/>
	<polygon id="XMLID_68_" class="st13" stroke-linejoin="round" points="341.7,418.7 303.2,629.8 290.7,326.7 	"/>
	<polygon id="XMLID_67_" class="st14" stroke-linejoin="round" points="290.7,326.7 140.5,648.5 125.9,285.2 	"/>
	<polygon id="XMLID_66_" class="st15" stroke-linejoin="round" points="140.5,648.5 303.2,629.8 290.7,326.7 	"/>
	<polygon id="XMLID_65_" class="st3" stroke-linejoin="round" points="125.9,285.2 8.7,494.2 140.5,648.5 	"/>
	<polygon id="XMLID_64_" class="st1" stroke-linejoin="round" points="290.7,326.7 403.7,236.2 380.2,334.2 	"/>
	<polygon id="XMLID_63_" class="st3" stroke-linejoin="round" points="411.2,108.5 460.5,120.2 351.2,167.2 	"/>
	<polygon id="XMLID_62_" class="st16" stroke-linejoin="round" points="447.7,99.8 460.5,120.2 478.8,124.7 460.5,105.8 	"/>
	<polygon id="XMLID_61_" class="st1" stroke-linejoin="round" points="472.2,329.4 527.9,289 630.7,442.7 	"/>
	<path id="XMLID_60_" class="st3" stroke-linejoin="round" d="M630.7,442.7"/>
	<polygon id="XMLID_59_" class="st17" stroke-linejoin="round" points="411.2,108.5 460.5,120.2 447.7,99.8 	"/>
	<polygon id="XMLID_58_" class="st3" stroke-linejoin="round" points="472.2,329.4 510,494.2 592.8,513.4 633.7,472.7 630.7,442.7 	"/>
	<polygon id="XMLID_1_" class="st18" stroke-linejoin="round" points="403.7,236.2 472.2,329.4 527.9,289 	"/>
	<polygon id="XMLID_14_" class="st4" stroke-linejoin="round" points="566.5,289 527.9,289 630.7,442.7 655.2,446.2 	"/>
	<polygon id="XMLID_13_" class="st3" stroke-linejoin="round" points="556.7,230.7 566.5,289 527.9,289 491.7,216.2 	"/>
	<polygon id="XMLID_5_" class="st3" stroke-linejoin="round" points="497.2,144.7 501.5,158 460.5,120.2 	"/>
	<polygon id="XMLID_4_" class="st3" stroke-linejoin="round" points="497.2,144.7 556.7,230.7 501.5,158 	"/>
	<polygon id="XMLID_3_" class="st3" stroke-linejoin="round" points="491.7,216.2 501.5,158 556.7,230.7 	"/>
	<polygon id="XMLID_9_" class="st19" stroke-linejoin="round" points="556.7,230.7 491.7,216.2 527.9,289 566.5,289 	"/>
</g>
<g id="horn">
	<polygon id="XMLID_36_" class="st3" stroke-linejoin="round" points="501.5,158 684.6,7.2 497.2,183.3 	"/>
	<polygon id="XMLID_8_" class="st20" stroke-linejoin="round" points="497.2,183.3 524.2,187.9 684.6,7.2 	"/>
</g>
</svg>
